<svg width="1044" height="29" viewBox="0 0 1044 29" fill="none" xmlns="http://www.w3.org/2000/svg">
<path d="M0 14.5L25 28.9338L25 0.0662455L0 14.5ZM1044 14.5001L1019 0.0663324L1019 28.9338L1044 14.5001ZM15.0577 17L25.0962 17L25.0962 12L15.0577 12L15.0577 17ZM35.1346 17L45.1731 17L45.1731 12L35.1346 12L35.1346 17ZM55.2115 17L65.25 17L65.25 12L55.2115 12L55.2115 17ZM75.2885 17L85.3269 17L85.3269 12L75.2885 12L75.2885 17ZM95.3654 17L105.404 17L105.404 12L95.3654 12L95.3654 17ZM115.442 17L125.481 17L125.481 12L115.442 12L115.442 17ZM135.519 17L145.558 17L145.558 12L135.519 12L135.519 17ZM155.596 17L165.635 17L165.635 12L155.596 12L155.596 17ZM175.673 17L185.712 17L185.712 12L175.673 12L175.673 17ZM195.75 17L205.788 17L205.788 12L195.75 12L195.75 17ZM215.827 17L225.865 17L225.865 12L215.827 12L215.827 17ZM235.904 17L245.942 17L245.942 12L235.904 12L235.904 17ZM255.981 17L266.019 17L266.019 12L255.981 12L255.981 17ZM276.058 17L286.096 17L286.096 12L276.058 12L276.058 17ZM296.135 17L306.173 17L306.173 12L296.135 12L296.135 17ZM316.212 17L326.25 17L326.25 12L316.212 12L316.212 17ZM336.288 17L346.327 17L346.327 12L336.288 12L336.288 17ZM356.365 17L366.404 17L366.404 12L356.365 12L356.365 17ZM376.442 17L386.481 17L386.481 12L376.442 12L376.442 17ZM396.519 17L406.558 17L406.558 12L396.519 12L396.519 17ZM416.596 17L426.635 17L426.635 12L416.596 12L416.596 17ZM436.673 17L446.711 17L446.711 12L436.673 12L436.673 17ZM456.75 17L466.788 17L466.788 12L456.75 12L456.75 17ZM476.827 17L486.865 17L486.865 12L476.827 12L476.827 17ZM496.904 17L506.942 17L506.942 12L496.904 12L496.904 17ZM516.981 17L527.019 17L527.019 12L516.981 12L516.981 17ZM537.058 17L547.096 17L547.096 12L537.058 12L537.058 17ZM557.134 17L567.173 17L567.173 12L557.134 12L557.134 17ZM577.211 17.0001L587.25 17.0001L587.25 12.0001L577.211 12.0001L577.211 17.0001ZM597.288 17.0001L607.327 17.0001L607.327 12.0001L597.288 12.0001L597.288 17.0001ZM617.365 17.0001L627.404 17.0001L627.404 12.0001L617.365 12.0001L617.365 17.0001ZM637.442 17.0001L647.48 17.0001L647.48 12.0001L637.442 12.0001L637.442 17.0001ZM657.519 17.0001L667.557 17.0001L667.557 12.0001L657.519 12.0001L657.519 17.0001ZM677.596 17.0001L687.634 17.0001L687.634 12.0001L677.596 12.0001L677.596 17.0001ZM697.673 17.0001L707.711 17.0001L707.711 12.0001L697.673 12.0001L697.673 17.0001ZM717.75 17.0001L727.788 17.0001L727.788 12.0001L717.75 12.0001L717.75 17.0001ZM737.827 17.0001L747.865 17.0001L747.865 12.0001L737.827 12.0001L737.827 17.0001ZM757.903 17.0001L767.942 17.0001L767.942 12.0001L757.903 12.0001L757.903 17.0001ZM777.98 17.0001L788.019 17.0001L788.019 12.0001L777.98 12.0001L777.98 17.0001ZM798.057 17.0001L808.096 17.0001L808.096 12.0001L798.057 12.0001L798.057 17.0001ZM818.134 17.0001L828.173 17.0001L828.173 12.0001L818.134 12.0001L818.134 17.0001ZM838.211 17.0001L848.25 17.0001L848.25 12.0001L838.211 12.0001L838.211 17.0001ZM858.288 17.0001L868.326 17.0001L868.326 12.0001L858.288 12.0001L858.288 17.0001ZM878.365 17.0001L888.403 17.0001L888.403 12.0001L878.365 12.0001L878.365 17.0001ZM898.442 17.0001L908.48 17.0001L908.48 12.0001L898.442 12.0001L898.442 17.0001ZM918.519 17.0001L928.557 17.0001L928.557 12.0001L918.519 12.0001L918.519 17.0001ZM938.596 17.0001L948.634 17.0001L948.634 12.0001L938.596 12.0001L938.596 17.0001ZM958.673 17.0001L968.711 17.0001L968.711 12.0001L958.673 12.0001L958.673 17.0001ZM978.749 17.0001L988.788 17.0001L988.788 12.0001L978.749 12.0001L978.749 17.0001ZM998.826 17.0001L1008.86 17.0001L1008.86 12.0001L998.826 12.0001L998.826 17.0001ZM1018.9 17.0001L1028.94 17.0001L1028.94 12.0001L1018.9 12.0001L1018.9 17.0001Z" fill="#5C4126"/>
</svg>
