<svg width="117" height="117" viewBox="0 0 117 117" fill="none" xmlns="http://www.w3.org/2000/svg">
<path d="M116.365 58.1767C116.366 69.6844 112.955 80.934 106.562 90.5028C100.17 100.072 91.0835 107.53 80.4522 111.935C69.8208 116.339 58.122 117.492 46.8353 115.248C35.5486 113.004 25.1809 107.463 17.0434 99.3259C8.90582 91.1892 3.36388 80.8221 1.11842 69.5356C-1.12705 58.2491 0.0248224 46.5502 4.42835 35.9184C8.83188 25.2866 16.2893 16.1994 25.8575 9.80594C35.4257 3.4125 46.6749 5.84937e-08 58.1826 0C73.6131 0.00155557 88.4112 6.13199 99.3222 17.043C110.233 27.954 116.364 42.7521 116.365 58.1826" fill="#491819"/>
<mask id="mask0_96_5386" style="mask-type:luminance" maskUnits="userSpaceOnUse" x="3" y="3" width="111" height="111">
<path d="M3.30273 58.1767C3.30389 69.0306 6.52352 79.6405 12.5545 88.6647C18.5855 97.6888 27.1569 104.722 37.185 108.875C47.2131 113.028 58.2474 114.114 68.8927 111.995C79.5379 109.877 89.316 104.65 96.9905 96.9746C104.665 89.2993 109.891 79.5207 112.008 68.8752C114.125 58.2297 113.038 47.1955 108.884 37.1679C104.73 27.1402 97.6963 18.5695 88.6715 12.5395C79.6467 6.50951 69.0365 3.29102 58.1825 3.29102C43.6313 3.30655 29.6805 9.0943 19.3917 19.3842C9.10297 29.674 3.31671 43.6254 3.30273 58.1767Z" fill="white"/>
</mask>
<g mask="url(#mask0_96_5386)">
<path d="M113.068 3.29102H3.30273V113.057H113.068V3.29102Z" fill="url(#paint0_linear_96_5386)"/>
</g>
<path d="M58.1829 111.701C47.5967 111.701 37.2483 108.562 28.4462 102.681C19.6441 96.7996 12.7837 88.4402 8.73255 78.6598C4.68139 68.8794 3.62143 58.1174 5.68669 47.7347C7.75195 37.3519 12.8497 27.8147 20.3352 20.3291C27.8208 12.8436 37.358 7.74585 47.7408 5.68059C58.1235 3.61532 68.8856 4.67529 78.6659 8.72645C88.4463 12.7776 96.8057 19.638 102.687 28.4401C108.568 37.2422 111.708 47.5906 111.708 58.1768C111.691 72.3672 106.046 85.9715 96.0117 96.0056C85.9776 106.04 72.3733 111.684 58.1829 111.701Z" fill="#711312"/>
<path d="M58.1828 108.34C48.2624 108.335 38.5662 105.389 30.32 99.8745C22.0737 94.3597 15.6479 86.5236 11.8547 77.3571C8.06157 68.1906 7.07152 58.1051 9.00973 48.376C10.9479 38.6468 15.7274 29.7107 22.7438 22.6976C29.7602 15.6845 38.6984 10.9093 48.4285 8.97561C58.1586 7.04195 68.2435 8.03672 77.4083 11.8341C86.5731 15.6316 94.4061 22.0611 99.9171 30.3099C105.428 38.5587 108.37 48.2563 108.37 58.1767C108.354 71.4761 103.064 84.2263 93.6599 93.6303C84.2558 103.034 71.5056 108.324 58.2063 108.34" fill="#D7A429"/>
<path d="M58.1829 104.333C49.054 104.333 40.1301 101.626 32.5397 96.5546C24.9493 91.4828 19.0333 84.2742 15.5398 75.8401C12.0464 67.4061 11.1323 58.1256 12.9133 49.1721C14.6942 40.2186 19.0902 31.9943 25.5453 25.5392C32.0004 19.0841 40.2247 14.6881 49.1782 12.9072C58.1317 11.1262 67.4123 12.0403 75.8463 15.5337C84.2803 19.0272 91.4889 24.9432 96.5607 32.5336C101.632 40.124 104.339 49.0479 104.339 58.1768C104.325 70.414 99.4581 82.146 90.8051 90.799C82.1521 99.452 70.4201 104.319 58.1829 104.333Z" fill="#491819"/>
<mask id="mask1_96_5386" style="mask-type:luminance" maskUnits="userSpaceOnUse" x="13" y="13" width="91" height="91">
<path d="M13.0293 58.1768C13.0293 67.1108 15.6785 75.8442 20.642 83.2725C25.6054 90.7008 32.6602 96.4905 40.9141 99.9094C49.168 103.328 58.2504 104.223 67.0127 102.48C75.775 100.737 83.8237 96.4348 90.141 90.1175C96.4583 83.8003 100.76 75.7516 102.503 66.9893C104.246 58.227 103.352 49.1446 99.9328 40.8907C96.5139 32.6367 90.7243 25.582 83.2959 20.6185C75.8676 15.6551 67.1343 13.0059 58.2003 13.0059C46.2226 13.0136 34.7377 17.7752 26.2682 26.2447C17.7986 34.7142 13.0371 46.1991 13.0293 58.1768Z" fill="white"/>
</mask>
<g mask="url(#mask1_96_5386)">
<path d="M32.0909 -23.8328L-23.8174 84.2559L84.2713 140.164L140.18 32.0754L32.0909 -23.8328Z" fill="url(#paint1_linear_96_5386)"/>
</g>
<path d="M92.3781 33.5792C91.944 33.0864 79.431 19.148 51.4602 21.9227C51.4602 21.9227 59.9664 17.7694 78.0876 21.0428C69.8617 16.6196 60.3992 15.0555 51.1875 16.5963C41.9758 18.1371 33.5373 22.6954 27.1986 29.5546C20.8598 36.4139 16.9803 45.1851 16.1697 54.4896C15.3592 63.794 17.6637 73.1039 22.7209 80.9559C22.7678 81.0087 36.3015 95.9504 64.724 93.1286C64.724 93.1286 54.5811 98.4084 34.7763 93.2342C42.9835 98.7258 52.8594 101.159 62.6785 100.109C72.4976 99.0591 81.6356 94.5925 88.4961 87.4896C95.3566 80.3866 99.5032 71.0991 100.212 61.2494C100.92 51.3998 98.1455 41.6143 92.3722 33.6027" fill="#491819"/>
<path d="M47.3593 57.2028L48.955 65.9554L45.3296 66.9292V67.991H57.2676V66.8178L54.1702 66.02C54.1702 66.02 50.5448 55.9415 48.2452 38.6064L44.0918 39.6683L44.0038 40.5541C44.0038 40.5541 32.1479 63.2804 29.5901 65.844L26.0703 66.8178V67.991H36.8586V66.8178L33.4971 66.02L37.6505 57.1793L47.3593 57.2028ZM44.4262 43.939L46.9898 55.349H38.0611L44.4262 43.939Z" fill="#D9AC28"/>
<path d="M73.8809 48.1041C73.8809 48.1041 69.3697 49.248 67.1522 48.4561L69.2817 38.6358C69.2817 38.6358 70.7835 33.1566 77.0663 36.606C77.0663 36.606 79.8939 32.7166 74.6728 32.4526C68.5718 33.6904 64.5064 40.9354 63.0047 48.4561C63.0047 48.4561 58.8454 49.512 58.6694 51.6356C59.9612 50.9977 61.3821 50.6646 62.8228 50.6618C62.8228 50.6618 60.5232 77.3714 54.8621 79.935C48.8491 83.7364 43.1294 78.7617 43.1294 78.7617C43.1294 78.7617 40.032 83.8009 47.0188 83.8889C54.0057 83.9769 60.0187 79.1137 63.1103 71.5989C65.2632 63.9726 66.9175 50.9082 66.9175 50.9082H70.0971C70.0971 50.9082 73.6169 50.1984 73.9044 48.0806" fill="#D9AC28"/>
<path d="M85.8189 75.3301C86.5229 69.6749 88.6465 54.7978 90.3243 47.4766H84.7512C81.0139 48.3226 77.6583 50.3735 75.2008 53.3136C71.2234 58.1768 70.6896 68.9651 73.7049 67.9795C76.6381 67.6275 80.4219 64.9759 84.1353 58.1651C84.1353 58.1651 81.9237 78.2339 79.624 81.4193C79.624 81.4193 75.5528 82.1292 75.4707 83.455C75.4707 83.455 83.6836 82.0412 88.9105 82.487V81.4193H82.8095C82.8095 81.4193 85.1032 80.9794 85.8189 75.3183M76.9724 64.6181C74.1449 65.9439 76.7085 51.6182 81.3488 50.2044H85.7309C85.7309 50.2044 82.6335 62.5824 76.9724 64.6181Z" fill="#D9AC28"/>
<defs>
<linearGradient id="paint0_linear_96_5386" x1="-1.44286" y1="57.6916" x2="120.076" y2="57.6916" gradientUnits="userSpaceOnUse">
<stop stop-color="#FFCA06"/>
<stop offset="0.48" stop-color="#FBDE8F"/>
<stop offset="1" stop-color="#FFCA06"/>
</linearGradient>
<linearGradient id="paint1_linear_96_5386" x1="15.4313" y1="35.6734" x2="110.361" y2="84.7754" gradientUnits="userSpaceOnUse">
<stop stop-color="#FFCA06"/>
<stop offset="0.48" stop-color="#FBDE8F"/>
<stop offset="1" stop-color="#FFCA06"/>
</linearGradient>
</defs>
</svg>
