<svg width="30" height="30" viewBox="0 0 30 30" fill="none" xmlns="http://www.w3.org/2000/svg">
<path d="M15.0014 1.33325C22.8257 1.33325 29.1681 7.67567 29.1681 15.4999C29.1681 23.3242 22.8257 29.6666 15.0014 29.6666C12.4978 29.6706 10.0383 29.0081 7.87557 27.747L0.840403 29.6666L2.75574 22.6286C1.49362 20.4652 0.830554 18.0046 0.834736 15.4999C0.834736 7.67567 7.17715 1.33325 15.0014 1.33325ZM10.1734 8.84159L9.89007 8.85292C9.70664 8.86409 9.52738 8.91228 9.36307 8.99459C9.20939 9.08161 9.06911 9.1904 8.94657 9.31759C8.77657 9.47767 8.68024 9.6165 8.57682 9.75109C8.05283 10.4324 7.7707 11.2688 7.77499 12.1283C7.77782 12.8224 7.95915 13.4982 8.24249 14.13C8.8219 15.4078 9.77532 16.7608 11.0333 18.0145C11.3365 18.3163 11.634 18.6194 11.9542 18.9013C13.5173 20.2776 15.38 21.2701 17.3942 21.7998L18.1988 21.9231C18.4609 21.9373 18.723 21.9174 18.9865 21.9047C19.3991 21.8834 19.8019 21.7717 20.1666 21.5774C20.3521 21.4819 20.5331 21.3779 20.7092 21.2658C20.7092 21.2658 20.7701 21.2261 20.8862 21.1383C21.0775 20.9966 21.1951 20.896 21.3537 20.7303C21.4713 20.6084 21.5733 20.4653 21.6512 20.3024C21.7617 20.0715 21.8722 19.6309 21.9176 19.264C21.9516 18.9835 21.9417 18.8305 21.9374 18.7356C21.9317 18.584 21.8057 18.4268 21.6682 18.3602L20.8437 17.9904C20.8437 17.9904 19.6112 17.4535 18.8576 17.1107C18.7787 17.0762 18.6942 17.0565 18.6082 17.0526C18.5113 17.0426 18.4134 17.0535 18.321 17.0846C18.2286 17.1156 18.144 17.166 18.0727 17.2325C18.0657 17.2297 17.9707 17.3104 16.9465 18.5514C16.8877 18.6304 16.8067 18.6901 16.7139 18.7229C16.621 18.7557 16.5205 18.7601 16.4252 18.7356C16.3329 18.7108 16.2424 18.6796 16.1546 18.6421C15.9789 18.5684 15.918 18.5401 15.7976 18.4891C14.9845 18.1343 14.2317 17.6549 13.5663 17.0682C13.3878 16.9123 13.2221 16.7423 13.0521 16.578C12.4947 16.0442 12.009 15.4404 11.6071 14.7817L11.5235 14.6471C11.4635 14.5567 11.4149 14.4591 11.379 14.3567C11.3252 14.1484 11.4654 13.9813 11.4654 13.9813C11.4654 13.9813 11.8097 13.6044 11.9697 13.4004C12.1256 13.2021 12.2573 13.0094 12.3423 12.872C12.5095 12.6028 12.5619 12.3266 12.4741 12.1127C12.0774 11.1437 11.6666 10.1789 11.2444 9.22125C11.1608 9.03142 10.9129 8.89542 10.6877 8.8685C10.6112 8.86 10.5347 8.8515 10.4582 8.84584C10.2679 8.83638 10.0773 8.83828 9.88724 8.8515L10.172 8.84017L10.1734 8.84159Z" fill="#F6F6F6"/>
</svg>
